<?xml version="1.0" encoding="UTF-8"?>
<svg version="1.1" xmlns="http://www.w3.org/2000/svg" width="200" height="200">
<path d="M0 0 C3.3 0 6.6 0 10 0 C10 3.63 10 7.26 10 11 C11.8871875 11.061875 11.8871875 11.061875 13.8125 11.125 C23.81091867 12.22892635 32.83918342 18.94050873 39.0625 26.5625 C43.68801855 32.98208511 47 40.06199146 47 48 C50.3 48 53.6 48 57 48 C57 51.3 57 54.6 57 58 C53.7 58 50.4 58 47 58 C46.95875 59.0725 46.9175 60.145 46.875 61.25 C45.77900925 69.94074359 40.61633599 79.24604968 34 85 C26.77572592 90.24307164 19.24955763 95.6767969 10 95 C10 98.63 10 102.26 10 106 C6.7 106 3.4 106 0 106 C0 102.37 0 98.74 0 95 C-1.258125 94.95875 -2.51625 94.9175 -3.8125 94.875 C-13.81091867 93.77107365 -22.83918342 87.05949127 -29.0625 79.4375 C-33.68801855 73.01791489 -37 65.93800854 -37 58 C-40.3 58 -43.6 58 -47 58 C-47 54.7 -47 51.4 -47 48 C-43.7 48 -40.4 48 -37 48 C-36.95875 46.9275 -36.9175 45.855 -36.875 44.75 C-35.77900925 36.05925641 -30.61633599 26.75395032 -24 21 C-16.77572592 15.75692836 -9.24955763 10.3232031 0 11 C0 7.37 0 3.74 0 0 Z M-18 29 C-18.556875 29.50273438 -19.11375 30.00546875 -19.6875 30.5234375 C-25.50478198 36.48615153 -28.10268472 44.77557361 -28.5 53 C-27.97452434 62.936267 -24.42389881 70.76849825 -17.5078125 77.8671875 C-9.39852773 84.76386894 -0.43057611 86.81987061 10 86 C17.22578055 84.71396364 22.59274675 81.9178036 28 77 C28.556875 76.49726562 29.11375 75.99453125 29.6875 75.4765625 C35.50478198 69.51384847 38.10268472 61.22442639 38.5 53 C37.97452434 43.063733 34.42389881 35.23150175 27.5078125 28.1328125 C13.96992445 16.61928154 -4.96209987 17.14225462 -18 29 Z " fill="#FFFFFF" transform="translate(95,47)"/>
<path d="M0 0 C4.34048798 3.02068221 7.47521474 7.11878867 8.82421875 12.26953125 C9.4477767 18.60903708 8.48838252 23.00440977 4.82421875 28.26953125 C0.54307414 32.90255076 -3.7597084 35.03188474 -9.98828125 35.64453125 C-15.34239213 35.48289771 -19.79139298 33.47282674 -23.71875 29.84375 C-27.91818404 25.07782339 -29.68100344 20.7706412 -29.48828125 14.38671875 C-28.71488708 9.14697322 -26.18739864 4.8742445 -22.23828125 1.39453125 C-14.86154362 -3.72402139 -7.86778296 -4.3744255 0 0 Z " fill="#FFFFFF" transform="translate(110.17578125,83.73046875)"/>
<path d="M0 0 C3.3 0 6.6 0 10 0 C10 3.3 10 6.6 10 10 C6.7 10 3.4 10 0 10 C0 6.7 0 3.4 0 0 Z " fill="#DC9803" transform="translate(181,119)"/>
<path d="M0 0 C3.3 0 6.6 0 10 0 C10 3.3 10 6.6 10 10 C6.7 10 3.4 10 0 10 C0 6.7 0 3.4 0 0 Z " fill="#DC9803" transform="translate(161,95)"/>
<path d="M0 0 C3.3 0 6.6 0 10 0 C10 3.3 10 6.6 10 10 C6.7 10 3.4 10 0 10 C0 6.7 0 3.4 0 0 Z " fill="#DC9803" transform="translate(30,95)"/>
<path d="M0 0 C3.3 0 6.6 0 10 0 C10 3.3 10 6.6 10 10 C6.7 10 3.4 10 0 10 C0 6.7 0 3.4 0 0 Z " fill="#DC9803" transform="translate(9,72)"/>
<path d="M0 0 C3.3 0 6.6 0 10 0 C10 2.97 10 5.94 10 9 C6.7 9 3.4 9 0 9 C0 6.03 0 3.06 0 0 Z " fill="#DC9803" transform="translate(40,132)"/>
<path d="M0 0 C2.97 0 5.94 0 9 0 C9 3.3 9 6.6 9 10 C6.03 10 3.06 10 0 10 C0 6.7 0 3.4 0 0 Z " fill="#DC9803" transform="translate(148,126)"/>
<path d="M0 0 C2.97 0 5.94 0 9 0 C9 3.3 9 6.6 9 10 C6.03 10 3.06 10 0 10 C0 6.7 0 3.4 0 0 Z " fill="#DC9803" transform="translate(43,64)"/>
<path d="M0 0 C3.3 0 6.6 0 10 0 C10 2.97 10 5.94 10 9 C6.7 9 3.4 9 0 9 C0 6.03 0 3.06 0 0 Z " fill="#DC9803" transform="translate(150,59)"/>
</svg>
